<svg width="40" height="22" viewBox="0 0 40 22" fill="none" xmlns="http://www.w3.org/2000/svg">
<path d="M14.2705 1.07281L26.6999 20.5828C26.7976 20.7364 26.752 20.94 26.5984 21.0376L25.3025 21.8595C25.1494 21.9566 24.9464 21.9116 24.8487 21.7586L13.5303 3.99555L3.4579 19.8053H16.6451C16.8267 19.8053 16.9743 19.9529 16.9743 20.1345V21.6708C16.9743 21.8524 16.8267 22 16.6451 22H1.05694C0.363981 22 -0.055756 21.2346 0.31679 20.6503L12.7896 1.07281C13.1347 0.531272 13.9253 0.531272 14.2705 1.07281Z" fill="white"/>
<path d="M23.6663 5.51315L33.274 20.5905C33.3717 20.7436 33.3267 20.9471 33.1736 21.0448L31.8837 21.87C31.7306 21.9682 31.5265 21.9232 31.4289 21.7696L21.8212 6.69223C21.7235 6.53915 21.7685 6.3356 21.9216 6.23794L23.2115 5.41274C23.3646 5.31454 23.5687 5.35952 23.6663 5.51315Z" fill="white"/>
<path d="M38.4079 21.747L39.6989 20.9208C39.852 20.8231 39.8964 20.6196 39.7988 20.4665L33.0589 9.88876C32.9613 9.73513 32.7572 9.69015 32.6036 9.78835L31.3125 10.6146C31.1595 10.7123 31.115 10.9159 31.2127 11.0689L37.9525 21.6467C38.0502 21.8003 38.2543 21.8453 38.4079 21.747Z" fill="white"/>
</svg>
